<svg version="1.1" id="Layer_1" xmlns="http://www.w3.org/2000/svg" xmlns:xlink="http://www.w3.org/1999/xlink" x="0px" y="0px"
	 width="100%" viewBox="0 0 1000 1000" enable-background="new 0 0 1000 1000" xml:space="preserve">
<path fill="#7608F7" opacity="1.000000" stroke="none" 
	d="
M338.000000,1001.000000 
	C225.683090,1001.000000 113.366165,1001.000000 1.024626,1001.000000 
	C1.024626,667.731812 1.024626,334.463593 1.024626,1.097702 
	C334.219452,1.097702 667.438965,1.097702 1001.000000,1.097702 
	C1001.000000,170.694550 1001.000000,340.389313 1000.629822,510.642883 
	C986.354980,506.149780 972.630798,500.513336 958.512573,496.152893 
	C911.392151,481.599640 862.563904,477.720215 813.755432,474.111694 
	C784.703552,471.963806 755.613831,470.253021 726.519409,468.773773 
	C691.941589,467.015747 657.315979,466.125214 622.758545,464.064087 
	C602.536804,462.858002 582.262268,461.010010 562.272949,457.815094 
	C536.785645,453.741455 513.341858,443.936646 493.043427,427.538086 
	C460.955505,401.615265 443.561523,365.474304 424.884521,329.892212 
	C428.392639,327.914093 431.623230,326.233765 434.714691,324.327789 
	C473.865692,300.190796 503.574677,267.429718 523.874268,226.193100 
	C532.407410,208.858963 540.217773,191.280762 542.453247,171.709351 
	C545.190674,147.744308 532.363098,128.578156 509.023468,122.633301 
	C492.376801,118.393227 476.526642,121.870766 461.368500,128.559204 
	C447.526611,134.666840 434.123627,141.769363 420.528381,148.435806 
	C408.630524,154.269958 396.734283,160.107452 384.582794,166.068329 
	C384.075104,163.741562 383.658813,161.827484 383.239594,159.914062 
	C382.813477,157.969360 382.446930,156.009109 381.947388,154.083420 
	C375.533447,129.358414 365.537811,106.594154 346.188477,88.972679 
	C325.859131,70.458740 301.190186,68.252281 281.365021,84.282303 
	C273.572876,90.582779 266.496979,98.316360 260.805054,106.575829 
	C230.063126,151.185043 219.159241,200.288223 229.434372,253.720932 
	C230.201401,257.709656 229.613144,259.460388 225.718918,261.183075 
	C194.957947,274.790802 171.451172,295.941132 158.750580,327.694092 
	C149.868729,349.899750 136.802597,369.456543 122.211426,388.186676 
	C115.875206,396.320221 109.663139,404.621490 104.194389,413.347809 
	C76.994316,456.750000 94.649536,498.722168 129.907776,520.912964 
	C151.042953,534.215027 174.444763,540.025452 199.147202,540.563660 
	C224.202576,541.109558 248.317337,535.248352 272.234222,528.514893 
	C276.009949,527.451843 279.795197,526.422546 283.819244,525.310425 
	C284.295746,527.009644 284.656433,528.096375 284.903870,529.208313 
	C288.620789,545.912354 292.485016,562.585754 295.995361,579.333252 
	C303.901276,617.051758 317.272339,652.775574 335.136322,686.835266 
	C349.321350,713.880676 368.256012,737.511841 388.701294,760.008972 
	C398.398285,770.679138 408.064911,781.376892 417.495178,791.786011 
	C411.119568,799.061279 404.486694,806.085266 398.463593,813.598083 
	C373.398773,844.862427 351.834473,877.990540 342.357361,917.747498 
	C335.791046,945.293579 330.423981,972.773010 338.000000,1001.000000 
z"/>
<path fill="#FEFEFF" opacity="1.000000" stroke="none" 
	d="
M338.468658,1001.000000 
	C330.423981,972.773010 335.791046,945.293579 342.357361,917.747498 
	C351.834473,877.990540 373.398773,844.862427 398.463593,813.598083 
	C404.486694,806.085266 411.119568,799.061279 417.495178,791.786011 
	C408.064911,781.376892 398.398285,770.679138 388.701294,760.008972 
	C368.256012,737.511841 349.321350,713.880676 335.136322,686.835266 
	C317.272339,652.775574 303.901276,617.051758 295.995361,579.333252 
	C292.485016,562.585754 288.620789,545.912354 284.903870,529.208313 
	C284.656433,528.096375 284.295746,527.009644 283.819244,525.310425 
	C279.795197,526.422546 276.009949,527.451843 272.234222,528.514893 
	C248.317337,535.248352 224.202576,541.109558 199.147202,540.563660 
	C174.444763,540.025452 151.042953,534.215027 129.907776,520.912964 
	C94.649536,498.722168 76.994316,456.750000 104.194389,413.347809 
	C109.663139,404.621490 115.875206,396.320221 122.211426,388.186676 
	C136.802597,369.456543 149.868729,349.899750 158.750580,327.694092 
	C171.451172,295.941132 194.957947,274.790802 225.718918,261.183075 
	C229.613144,259.460388 230.201401,257.709656 229.434372,253.720932 
	C219.159241,200.288223 230.063126,151.185043 260.805054,106.575829 
	C266.496979,98.316360 273.572876,90.582779 281.365021,84.282303 
	C301.190186,68.252281 325.859131,70.458740 346.188477,88.972679 
	C365.537811,106.594154 375.533447,129.358414 381.947388,154.083420 
	C382.446930,156.009109 382.813477,157.969360 383.239594,159.914062 
	C383.658813,161.827484 384.075104,163.741562 384.582794,166.068329 
	C396.734283,160.107452 408.630524,154.269958 420.528381,148.435806 
	C434.123627,141.769363 447.526611,134.666840 461.368500,128.559204 
	C476.526642,121.870766 492.376801,118.393227 509.023468,122.633301 
	C532.363098,128.578156 545.190674,147.744308 542.453247,171.709351 
	C540.217773,191.280762 532.407410,208.858963 523.874268,226.193100 
	C503.574677,267.429718 473.865692,300.190796 434.714691,324.327789 
	C431.623230,326.233765 428.392639,327.914093 424.884521,329.892212 
	C443.561523,365.474304 460.955505,401.615265 493.043427,427.538086 
	C513.341858,443.936646 536.785645,453.741455 562.272949,457.815094 
	C582.262268,461.010010 602.536804,462.858002 622.758545,464.064087 
	C657.315979,466.125214 691.941589,467.015747 726.519409,468.773773 
	C755.613831,470.253021 784.703552,471.963806 813.755432,474.111694 
	C862.563904,477.720215 911.392151,481.599640 958.512573,496.152893 
	C972.630798,500.513336 986.354980,506.149780 1000.629822,511.100830 
	C1001.000000,536.687561 1001.000000,562.375122 1000.636230,588.539429 
	C985.589844,582.359680 971.209717,574.906250 956.167297,569.197754 
	C913.091064,552.850769 867.690857,548.184631 822.256226,544.133240 
	C799.050049,542.063904 775.817200,540.212036 752.565674,538.751770 
	C724.662415,536.999390 696.740601,535.319214 668.800659,534.428894 
	C635.207520,533.358521 601.573181,533.674438 568.249939,528.117004 
	C525.277222,520.950378 487.771545,503.038635 456.856964,472.084961 
	C425.787689,440.976410 405.982666,403.274658 392.981598,361.682831 
	C390.914490,355.070007 389.080750,348.384216 387.250458,342.113647 
	C381.440735,342.113647 376.112122,342.351196 370.814667,342.046844 
	C365.518158,341.742554 360.173035,341.284546 354.987823,340.219269 
	C334.475189,336.004944 324.929169,320.601532 329.902496,300.175079 
	C334.241791,282.352722 350.780029,269.400848 367.267548,272.510101 
	C381.297974,275.156006 392.962952,271.154572 403.770325,263.217773 
	C422.441010,249.506332 438.510773,233.196014 451.267151,213.768478 
	C452.084351,212.523895 452.301880,210.885529 452.793396,209.679474 
	C452.942932,209.871811 453.097504,209.815002 453.252045,209.758209 
	C453.102112,209.695084 452.952148,209.631958 452.477234,209.728546 
	C437.647705,216.970398 422.991272,223.760437 408.675720,231.205917 
	C389.191345,241.339737 370.118073,252.268158 350.576691,262.286682 
	C338.266083,268.598114 325.179016,272.284698 310.866486,268.196625 
	C295.420715,293.167786 273.243805,310.578857 248.153915,324.848969 
	C234.583984,332.567047 224.580795,343.453857 219.028809,358.449249 
	C209.042999,385.420044 195.042770,409.870972 174.130661,430.203308 
	C168.327789,435.845306 164.316315,443.535583 160.309311,450.745392 
	C157.701645,455.437378 159.353745,458.807007 163.949234,461.651001 
	C165.494385,462.607239 167.198273,463.329956 168.880844,464.037628 
	C184.304504,470.524902 200.229156,468.865417 216.084274,466.582336 
	C245.532486,462.341919 273.757080,453.642792 301.358643,442.697906 
	C316.218109,436.805664 331.268311,431.497894 347.456085,430.463562 
	C356.346619,429.895508 363.834137,432.649017 369.843933,439.235687 
	C382.724670,453.352844 381.724335,474.982269 367.039825,487.289001 
	C359.314331,493.763611 350.670441,499.142487 342.378998,505.060547 
	C345.106384,510.471924 348.705414,516.162292 350.954102,522.343872 
	C357.941528,541.552063 364.637177,560.873718 371.044403,580.283997 
	C384.535522,621.154175 403.865204,658.921265 431.607819,691.913025 
	C443.366058,705.896057 457.012573,718.279480 469.593506,731.586060 
	C479.944122,742.533691 489.206177,754.238037 493.268677,769.213684 
	C497.617706,785.245605 492.599701,798.512512 478.848267,807.078125 
	C477.798065,807.732300 476.425446,808.700256 476.207306,809.734192 
	C472.983856,825.015320 464.998993,838.099304 457.040833,851.491455 
	C456.657898,852.028503 456.515778,852.388184 456.373718,852.747925 
	C457.018280,852.605103 457.662811,852.462280 458.609863,852.174927 
	C478.875641,830.584656 499.005249,809.290100 518.718506,787.616882 
	C526.351074,779.225342 532.335327,769.565552 536.023132,758.663269 
	C541.738342,741.767639 538.929993,725.533508 532.426270,709.522400 
	C524.735535,690.588989 516.682678,671.783447 509.682495,652.595703 
	C505.065216,639.939453 504.102112,626.611938 508.038177,613.366577 
	C511.393799,602.074463 518.574768,598.921448 528.901978,604.917236 
	C535.034668,608.477783 541.103882,612.636719 546.057190,617.656006 
	C568.564392,640.462830 586.714233,666.460876 600.719116,695.289124 
	C607.914856,710.101135 612.337830,725.736084 612.785645,742.274841 
	C613.472778,767.647766 605.923767,790.807983 593.022156,812.352356 
	C588.790955,819.417969 583.947205,826.116821 579.564880,832.710510 
	C633.960754,855.161621 686.036682,881.931885 736.539429,912.728455 
	C737.361694,905.496033 738.086548,898.776001 738.895813,892.066101 
	C741.389282,871.391235 745.252991,851.033081 752.445312,831.391418 
	C764.620728,798.140808 783.764771,769.067322 805.837463,741.725586 
	C827.089966,715.399902 850.712891,691.636658 879.521851,673.460510 
	C906.939758,656.162048 936.450867,645.328918 969.199646,645.182068 
	C979.796814,645.134583 990.399719,646.357910 1001.000000,647.000000 
	C1001.000000,663.687561 1001.000000,680.375122 1000.541565,697.427124 
	C993.764099,697.988525 987.317505,697.447266 981.148743,698.513672 
	C957.822754,702.545593 936.383118,711.673035 917.345154,725.586304 
	C874.852966,756.640564 846.789673,798.459534 828.980347,847.457092 
	C816.961914,880.522522 813.636292,914.909790 816.425476,949.746826 
	C817.800659,966.923279 821.404602,983.921265 824.000000,1001.000000 
	C788.312439,1001.000000 752.624878,1001.000000 716.452026,1000.654785 
	C711.234131,996.638123 706.785400,992.508179 701.721130,989.372192 
	C675.432495,973.092773 649.194641,956.713440 622.540405,941.047119 
	C592.874878,923.610901 562.756958,906.945496 532.911072,889.813599 
	C530.048645,888.170593 528.428101,888.441711 526.219604,890.835571 
	C517.982361,899.764404 509.500793,908.467285 501.138855,917.281494 
	C478.670288,940.965210 459.189056,966.759888 445.336456,996.508911 
	C444.684174,997.909668 444.436279,999.498657 444.000000,1001.000000 
	C408.979095,1001.000000 373.958221,1001.000000 338.468658,1001.000000 
M296.204346,152.705246 
	C280.289948,180.434067 274.961761,210.603516 275.280090,242.077042 
	C285.533417,240.757782 295.503113,239.475021 305.638062,238.171005 
	C326.207184,204.667328 319.441650,169.609467 308.339417,132.844131 
	C303.954376,140.018311 300.269287,146.047318 296.204346,152.705246 
z"/>
<path fill="#7609F7" opacity="1.000000" stroke="none" 
	d="
M452.798401,209.430359 
	C452.301880,210.885529 452.084351,212.523895 451.267151,213.768478 
	C438.510773,233.196014 422.441010,249.506332 403.770325,263.217773 
	C392.962952,271.154572 381.297974,275.156006 367.267548,272.510101 
	C350.780029,269.400848 334.241791,282.352722 329.902496,300.175079 
	C324.929169,320.601532 334.475189,336.004944 354.987823,340.219269 
	C360.173035,341.284546 365.518158,341.742554 370.814667,342.046844 
	C376.112122,342.351196 381.440735,342.113647 387.250458,342.113647 
	C389.080750,348.384216 390.914490,355.070007 392.981598,361.682831 
	C405.982666,403.274658 425.787689,440.976410 456.856964,472.084961 
	C487.771545,503.038635 525.277222,520.950378 568.249939,528.117004 
	C601.573181,533.674438 635.207520,533.358521 668.800659,534.428894 
	C696.740601,535.319214 724.662415,536.999390 752.565674,538.751770 
	C775.817200,540.212036 799.050049,542.063904 822.256226,544.133240 
	C867.690857,548.184631 913.091064,552.850769 956.167297,569.197754 
	C971.209717,574.906250 985.589844,582.359680 1000.636230,589.008118 
	C1001.000000,608.020874 1001.000000,627.041809 1001.000000,646.531311 
	C990.399719,646.357910 979.796814,645.134583 969.199646,645.182068 
	C936.450867,645.328918 906.939758,656.162048 879.521851,673.460510 
	C850.712891,691.636658 827.089966,715.399902 805.837463,741.725586 
	C783.764771,769.067322 764.620728,798.140808 752.445312,831.391418 
	C745.252991,851.033081 741.389282,871.391235 738.895813,892.066101 
	C738.086548,898.776001 737.361694,905.496033 736.539429,912.728455 
	C686.036682,881.931885 633.960754,855.161621 579.564880,832.710510 
	C583.947205,826.116821 588.790955,819.417969 593.022156,812.352356 
	C605.923767,790.807983 613.472778,767.647766 612.785645,742.274841 
	C612.337830,725.736084 607.914856,710.101135 600.719116,695.289124 
	C586.714233,666.460876 568.564392,640.462830 546.057190,617.656006 
	C541.103882,612.636719 535.034668,608.477783 528.901978,604.917236 
	C518.574768,598.921448 511.393799,602.074463 508.038177,613.366577 
	C504.102112,626.611938 505.065216,639.939453 509.682495,652.595703 
	C516.682678,671.783447 524.735535,690.588989 532.426270,709.522400 
	C538.929993,725.533508 541.738342,741.767639 536.023132,758.663269 
	C532.335327,769.565552 526.351074,779.225342 518.718506,787.616882 
	C499.005249,809.290100 478.875641,830.584656 458.354919,851.922058 
	C457.625580,851.647156 457.453644,851.480652 457.281677,851.314148 
	C464.998993,838.099304 472.983856,825.015320 476.207306,809.734192 
	C476.425446,808.700256 477.798065,807.732300 478.848267,807.078125 
	C492.599701,798.512512 497.617706,785.245605 493.268677,769.213684 
	C489.206177,754.238037 479.944122,742.533691 469.593506,731.586060 
	C457.012573,718.279480 443.366058,705.896057 431.607819,691.913025 
	C403.865204,658.921265 384.535522,621.154175 371.044403,580.283997 
	C364.637177,560.873718 357.941528,541.552063 350.954102,522.343872 
	C348.705414,516.162292 345.106384,510.471924 342.378998,505.060547 
	C350.670441,499.142487 359.314331,493.763611 367.039825,487.289001 
	C381.724335,474.982269 382.724670,453.352844 369.843933,439.235687 
	C363.834137,432.649017 356.346619,429.895508 347.456085,430.463562 
	C331.268311,431.497894 316.218109,436.805664 301.358643,442.697906 
	C273.757080,453.642792 245.532486,462.341919 216.084274,466.582336 
	C200.229156,468.865417 184.304504,470.524902 168.880844,464.037628 
	C167.198273,463.329956 165.494385,462.607239 163.949234,461.651001 
	C159.353745,458.807007 157.701645,455.437378 160.309311,450.745392 
	C164.316315,443.535583 168.327789,435.845306 174.130661,430.203308 
	C195.042770,409.870972 209.042999,385.420044 219.028809,358.449249 
	C224.580795,343.453857 234.583984,332.567047 248.153915,324.848969 
	C273.243805,310.578857 295.420715,293.167786 310.866486,268.196625 
	C325.179016,272.284698 338.266083,268.598114 350.576691,262.286682 
	C370.118073,252.268158 389.191345,241.339737 408.675720,231.205917 
	C422.991272,223.760437 437.647705,216.970398 452.480621,209.693802 
	C452.809021,209.499359 452.798401,209.430359 452.798401,209.430359 
M228.346268,384.884125 
	C233.381729,394.400635 241.377945,398.485718 251.800125,396.866150 
	C260.785065,395.469971 267.366150,388.338745 268.809204,378.435333 
	C270.527313,366.643951 263.762054,355.822235 253.176361,353.429077 
	C241.179596,350.716888 230.154861,356.546814 227.586914,368.059998 
	C226.453949,373.139496 227.826401,378.777832 228.346268,384.884125 
z"/>
<path fill="#7608F7" opacity="1.000000" stroke="none" 
	d="
M824.468628,1001.000000 
	C821.404602,983.921265 817.800659,966.923279 816.425476,949.746826 
	C813.636292,914.909790 816.961914,880.522522 828.980347,847.457092 
	C846.789673,798.459534 874.852966,756.640564 917.345154,725.586304 
	C936.383118,711.673035 957.822754,702.545593 981.148743,698.513672 
	C987.317505,697.447266 993.764099,697.988525 1000.541565,697.895813 
	C1001.000000,798.907898 1001.000000,899.815735 1001.000000,1001.000000 
	C942.312744,1001.000000 883.625000,1001.000000 824.468628,1001.000000 
z"/>
<path fill="#7609F7" opacity="1.000000" stroke="none" 
	d="
M444.468658,1001.000000 
	C444.436279,999.498657 444.684174,997.909668 445.336456,996.508911 
	C459.189056,966.759888 478.670288,940.965210 501.138855,917.281494 
	C509.500793,908.467285 517.982361,899.764404 526.219604,890.835571 
	C528.428101,888.441711 530.048645,888.170593 532.911072,889.813599 
	C562.756958,906.945496 592.874878,923.610901 622.540405,941.047119 
	C649.194641,956.713440 675.432495,973.092773 701.721130,989.372192 
	C706.785400,992.508179 711.234131,996.638123 715.983398,1000.654785 
	C625.645752,1001.000000 535.291565,1001.000000 444.468658,1001.000000 
z"/>
<path fill="#780BF7" opacity="1.000000" stroke="none" 
	d="
M296.394287,152.390793 
	C300.269287,146.047318 303.954376,140.018311 308.339417,132.844131 
	C319.441650,169.609467 326.207184,204.667328 305.638062,238.171005 
	C295.503113,239.475021 285.533417,240.757782 275.280090,242.077042 
	C274.961761,210.603516 280.289948,180.434067 296.394287,152.390793 
z"/>
<path fill="#7609F7" opacity="1.000000" stroke="none" 
	d="
M458.052429,852.066528 
	C457.662811,852.462280 457.018280,852.605103 456.373718,852.747925 
	C456.515778,852.388184 456.657898,852.028503 457.040833,851.491455 
	C457.453644,851.480652 457.625580,851.647156 458.052429,852.066528 
z"/>
<path fill="#7609F7" opacity="1.000000" stroke="none" 
	d="
M452.805603,209.534103 
	C452.952148,209.631958 453.102112,209.695084 453.252045,209.758209 
	C453.097504,209.815002 452.942932,209.871811 452.793396,209.679489 
	C452.798401,209.430359 452.809021,209.499359 452.805603,209.534103 
z"/>
<path fill="#FDFCFE" opacity="1.000000" stroke="none" 
	d="
M228.203857,384.523285 
	C227.826401,378.777832 226.453949,373.139496 227.586914,368.059998 
	C230.154861,356.546814 241.179596,350.716888 253.176361,353.429077 
	C263.762054,355.822235 270.527313,366.643951 268.809204,378.435333 
	C267.366150,388.338745 260.785065,395.469971 251.800125,396.866150 
	C241.377945,398.485718 233.381729,394.400635 228.203857,384.523285 
z"/>
</svg>